<?xml version="1.0" encoding="iso-8859-1"?>
<!-- Generator: Adobe Illustrator 19.0.0, SVG Export Plug-In . SVG Version: 6.00 Build 0)  -->
<svg version="1.1" id="Capa_1" xmlns="http://www.w3.org/2000/svg" xmlns:xlink="http://www.w3.org/1999/xlink" x="0px" y="0px"
	 viewBox="0 0 491.326 491.326" style="enable-background:new 0 0 491.326 491.326;" xml:space="preserve">
<g>
	<g>
		<path d="M245.7,491.326c-97.8,0-245.5-81.4-245.5-245.5c0-48.3,14-95,40.5-135.1c6.2-9.4,19-12,28.4-5.8s12,19,5.8,28.4
			c-22.1,33.4-33.7,72.3-33.7,112.5c0,112.8,91.7,204.5,204.5,204.5s204.5-91.7,204.5-204.5c0-78.9-44.5-148.6-115.2-184
			c-20.3-10.2-13.7-34.5,5.3-38.6L467,0.326c11.1-2,21.8,5.4,23.8,16.5s-5.4,21.8-16.5,23.8l-75.1,13.6c20.9,16.7,39,36.8,53.5,59.6
			c25.2,39.4,38.4,85,38.4,132C491.2,406.826,354,491.326,245.7,491.326z"/>
	</g>
</g>
<g>
</g>
<g>
</g>
<g>
</g>
<g>
</g>
<g>
</g>
<g>
</g>
<g>
</g>
<g>
</g>
<g>
</g>
<g>
</g>
<g>
</g>
<g>
</g>
<g>
</g>
<g>
</g>
<g>
</g>
</svg>
